<svg width="261" height="91" viewBox="0 0 261 91" fill="none" xmlns="http://www.w3.org/2000/svg">
    <path
        d="M7.896 8.608H0.336V2.32H22.608V8.608H15.072V34H7.896V8.608ZM44.5568 21.256H33.6128V34H26.4608V2.32H33.6128V14.992H44.5568V2.32H51.6848V34H44.5568V21.256ZM56.973 2.32H69.885C71.725 2.32 73.365 2.704 74.805 3.472C76.245 4.24 77.381 5.352 78.213 6.808C79.061 8.248 79.485 9.968 79.485 11.968C79.485 13.968 79.125 15.608 78.405 16.888C77.701 18.152 76.853 19.104 75.861 19.744C74.869 20.368 73.949 20.744 73.101 20.872L80.805 34H72.741L65.877 21.424H64.149V34H56.973V2.32ZM64.149 16.456H67.317C68.597 16.456 69.717 16.144 70.677 15.52C71.637 14.896 72.117 13.792 72.117 12.208C72.117 10.624 71.645 9.528 70.701 8.92C69.757 8.296 68.645 7.984 67.365 7.984H64.149V16.456ZM85.5233 2.32H105.755V8.608H92.6753V15.064H105.635V21.16H92.6753V27.712H105.755V34H85.5233V2.32ZM122.708 1.744C124.676 1.744 126.396 1.96 127.868 2.392C129.34 2.824 130.524 3.28 131.42 3.76C132.316 4.24 132.86 4.56 133.052 4.72L129.596 10.504C129.34 10.312 128.9 10.032 128.276 9.664C127.668 9.296 126.94 8.968 126.092 8.68C125.26 8.392 124.388 8.248 123.476 8.248C122.244 8.248 121.244 8.472 120.476 8.92C119.724 9.352 119.348 10 119.348 10.864C119.348 11.456 119.548 11.992 119.948 12.472C120.364 12.936 120.988 13.384 121.82 13.816C122.668 14.232 123.74 14.688 125.036 15.184C126.22 15.616 127.332 16.128 128.372 16.72C129.412 17.312 130.324 18.016 131.108 18.832C131.908 19.632 132.54 20.56 133.004 21.616C133.468 22.672 133.7 23.872 133.7 25.216C133.7 26.816 133.372 28.208 132.716 29.392C132.06 30.56 131.164 31.528 130.028 32.296C128.908 33.064 127.628 33.632 126.188 34C124.764 34.384 123.284 34.576 121.748 34.576C119.572 34.576 117.62 34.328 115.892 33.832C114.18 33.336 112.796 32.8 111.74 32.224C110.684 31.648 110.052 31.264 109.844 31.072L113.42 25.048C113.612 25.192 113.98 25.424 114.524 25.744C115.084 26.064 115.764 26.4 116.564 26.752C117.364 27.088 118.212 27.376 119.108 27.616C120.02 27.856 120.916 27.976 121.796 27.976C123.268 27.976 124.372 27.696 125.108 27.136C125.844 26.56 126.212 25.808 126.212 24.88C126.212 24.192 125.98 23.576 125.516 23.032C125.052 22.488 124.356 21.976 123.428 21.496C122.5 21 121.34 20.48 119.948 19.936C118.556 19.376 117.252 18.696 116.036 17.896C114.836 17.096 113.86 16.096 113.108 14.896C112.356 13.696 111.98 12.208 111.98 10.432C111.98 8.656 112.476 7.12 113.468 5.824C114.476 4.512 115.796 3.504 117.428 2.8C119.076 2.096 120.836 1.744 122.708 1.744ZM156.119 21.256H145.175V34H138.023V2.32H145.175V14.992H156.119V2.32H163.247V34H156.119V21.256ZM175.136 18.136C175.136 19.944 175.504 21.584 176.24 23.056C176.992 24.512 178.024 25.672 179.336 26.536C180.664 27.4 182.2 27.832 183.944 27.832C185.688 27.832 187.216 27.4 188.528 26.536C189.856 25.672 190.888 24.512 191.624 23.056C192.376 21.584 192.752 19.944 192.752 18.136C192.752 16.328 192.376 14.696 191.624 13.24C190.888 11.784 189.856 10.624 188.528 9.76C187.216 8.88 185.688 8.44 183.944 8.44C182.2 8.44 180.664 8.88 179.336 9.76C178.024 10.624 176.992 11.784 176.24 13.24C175.504 14.696 175.136 16.328 175.136 18.136ZM167.672 18.136C167.672 15.832 168.08 13.688 168.896 11.704C169.712 9.704 170.856 7.96 172.328 6.472C173.8 4.984 175.528 3.824 177.512 2.992C179.496 2.16 181.64 1.744 183.944 1.744C186.28 1.744 188.432 2.16 190.4 2.992C192.384 3.824 194.104 4.984 195.56 6.472C197.032 7.96 198.168 9.704 198.968 11.704C199.784 13.688 200.192 15.832 200.192 18.136C200.192 20.456 199.8 22.616 199.016 24.616C198.232 26.6 197.112 28.344 195.656 29.848C194.2 31.336 192.48 32.496 190.496 33.328C188.512 34.16 186.328 34.576 183.944 34.576C181.512 34.576 179.296 34.16 177.296 33.328C175.312 32.496 173.6 31.336 172.16 29.848C170.72 28.344 169.608 26.6 168.824 24.616C168.056 22.616 167.672 20.456 167.672 18.136ZM204.497 2.32H211.673V27.712H223.169V34H204.497V2.32ZM227.908 2.32H237.436C240.812 2.32 243.604 3 245.812 4.36C248.036 5.704 249.7 7.568 250.804 9.952C251.908 12.336 252.46 15.064 252.46 18.136C252.46 21.224 251.908 23.96 250.804 26.344C249.7 28.728 248.036 30.6 245.812 31.96C243.604 33.32 240.812 34 237.436 34H227.908V2.32ZM235.06 8.68V27.64H236.788C238.596 27.64 240.092 27.232 241.276 26.416C242.46 25.584 243.348 24.456 243.94 23.032C244.548 21.592 244.852 19.976 244.852 18.184C244.852 16.376 244.556 14.76 243.964 13.336C243.388 11.896 242.5 10.76 241.3 9.928C240.1 9.096 238.596 8.68 236.788 8.68H235.06Z"
        fill="black" />
    <path
        d="M90.2934 50.32H97.4694V75.712H108.965V82H90.2934V50.32ZM123.905 50.32H131.033L143.537 82H135.881L133.577 75.64H121.385L119.057 82H111.377L123.905 50.32ZM123.785 69.352H131.201L127.529 58.96H127.457L123.785 69.352ZM146.262 50.32H157.134C158.942 50.32 160.614 50.568 162.15 51.064C163.702 51.56 164.95 52.376 165.894 53.512C166.854 54.632 167.334 56.152 167.334 58.072C167.334 59.336 167.094 60.464 166.614 61.456C166.15 62.448 165.526 63.264 164.742 63.904C163.974 64.528 163.134 64.944 162.222 65.152C163.022 65.248 163.798 65.48 164.55 65.848C165.318 66.2 166.006 66.696 166.614 67.336C167.238 67.96 167.726 68.744 168.078 69.688C168.446 70.616 168.63 71.72 168.63 73C168.63 74.776 168.23 76.344 167.43 77.704C166.646 79.048 165.494 80.104 163.974 80.872C162.47 81.624 160.622 82 158.43 82H146.262V50.32ZM153.438 76.264H156.702C157.726 76.264 158.558 76.112 159.198 75.808C159.854 75.488 160.334 75.04 160.638 74.464C160.942 73.872 161.094 73.168 161.094 72.352C161.094 71.072 160.694 70.136 159.894 69.544C159.11 68.936 158.006 68.632 156.582 68.632H153.438V76.264ZM153.438 63.016H156.342C157.19 63.016 157.894 62.864 158.454 62.56C159.03 62.256 159.462 61.832 159.75 61.288C160.054 60.728 160.206 60.088 160.206 59.368C160.206 58.072 159.838 57.2 159.102 56.752C158.366 56.288 157.358 56.056 156.078 56.056H153.438V63.016Z"
        fill="black" />
    <path d="M90.6016 41.9177H227.632C227.632 41.9177 260.28 43.9074 258.5 21.5" stroke="#A8FF00" stroke-width="4" />
</svg>